<?xml version="1.0" encoding="utf-8"?>
<svg viewBox="11.016 9 27.968 31.999" xmlns="http://www.w3.org/2000/svg">
  <path d="M 25 9 C 23.679 9 22.358 9.426 21.262 10.275 L 12.162 17.322 C 10.678 18.471 10.627 20.748 12.061 21.959 C 12.061 21.959 12.062 21.959 12.063 21.959 L 15.422 24.797 L 12.16 27.322 C 10.677 28.471 10.627 30.748 12.061 31.959 L 21.063 39.564 C 23.328 41.477 26.672 41.477 28.938 39.564 L 37.938 31.959 C 39.37 30.748 39.322 28.471 37.838 27.322 L 34.578 24.799 L 37.939 21.959 C 39.372 20.748 39.324 18.471 37.84 17.322 L 28.738 10.273 L 28.738 10.275 C 27.642 9.426 26.321 9 25 9 Z M 25 10.998 C 25.888 10.998 26.776 11.284 27.514 11.855 L 36.615 18.904 C 37.139 19.309 37.152 20.006 36.648 20.432 L 32.961 23.547 L 31.4 24.865 L 27.648 28.035 C 26.124 29.322 23.878 29.322 22.354 28.035 L 13.352 20.432 C 12.847 20.005 12.863 19.31 13.387 18.904 L 22.486 11.855 C 22.487 11.855 22.488 11.855 22.488 11.855 C 23.226 11.284 24.112 10.998 25 10.998 Z M 16.984 26.117 L 21.063 29.564 C 23.328 31.477 26.672 31.477 28.938 29.564 L 33.016 26.119 L 36.613 28.904 C 37.137 29.309 37.152 30.006 36.648 30.432 L 27.646 38.035 C 26.122 39.322 23.876 39.322 22.352 38.035 L 13.352 30.432 C 12.847 30.005 12.862 29.31 13.385 28.904 L 16.984 26.117 Z" style="fill: rgb(255, 255, 255);"/>
</svg>